# xmcd CD database file
#
# Track frame offsets:
#	183
#	15103
#	31608
#	43975
#	64235
#	81035
#	95883
#	113808
#	131798
#	148295
#	158073
#	178318
#	196903
#	208968
#	227443
#	243173
#
# Disc length: 3368 seconds
#
# Revision: 4
# Processed by: cddbd v1.4PL0 Copyright (c) Steve Scherf et al.
# Submitted via: Feurio! 1.65 - http://www.feurio.com
#
DISCID=dd0d2610
DTITLE=Champion Jack Dupree - Won't Be A Fool No More
DYEAR=1900
DGENRE=Blues
TTITLE0=Third Degree
TTITLE1=T.V. Mama
TTITLE2=He Knows The Rules
TTITLE3=Ain't It A Shame
TTITLE4=Ooh-La-La
TTITLE5=(Going Down To) Big Leg Emma's
TTITLE6=Won't Be A Fool No More
TTITLE7=Calcutta Blues
TTITLE8=Take It Slow And Easy
TTITLE9=She's All In My Life
TTITLE10=Poor Poor Me
TTITLE11=24 Hours
TTITLE12=Pigfoot And  A Bottle Of Beer
TTITLE13=Down The Valley'
TTITLE14=Too Early In The Morning]
TTITLE15=Shim-Sham-Shimmy
EXTD=Same As "From New Orleans to Chicago" plus 2 Songs (Calcutta Blues And  
EXTD=24 Hours
EXTT0=
EXTT1=
EXTT2=
EXTT3=
EXTT4=
EXTT5=
EXTT6=
EXTT7=
EXTT8=
EXTT9=
EXTT10=
EXTT11=
EXTT12=
EXTT13=
EXTT14=
EXTT15=
PLAYORDER=
